<svg id="Layer_1" data-name="Layer 1" xmlns="http://www.w3.org/2000/svg" viewBox="0 0 323.54 333.03"><title>sq_new_logo</title><path d="M57.94,157.06q-2.54,3.2-6.39,8.37,1,.2,3.91-1a54.84,54.84,0,0,0,6-3A36.22,36.22,0,0,0,67,157.57q2.44-2.08,2.54-3.6a12.21,12.21,0,0,0-2-5.13,22.52,22.52,0,0,0-3.55-4.11,22.22,22.22,0,0,0-3.7-2.74,6.39,6.39,0,0,0-2.49-1,32.5,32.5,0,0,0-9.19,1.42,29,29,0,0,0-8.88,4.36A23.92,23.92,0,0,0,33,154.12a19.1,19.1,0,0,0-2.39,10.5,9.35,9.35,0,0,0,1.62,5.48,20.56,20.56,0,0,0,4,4.26,42.75,42.75,0,0,0,5.13,3.55,55.29,55.29,0,0,1,5,3.3,17.17,17.17,0,0,1,3.6,3.55,5.5,5.5,0,0,1,1,4.31A4.76,4.76,0,0,1,49.11,192a7.82,7.82,0,0,1-3.7,1.57,9.7,9.7,0,0,1-4.72-.51,12.54,12.54,0,0,1-4.87-3.25,21.77,21.77,0,0,1-4.16-6.55A38.66,38.66,0,0,1,29,172.74a3.45,3.45,0,0,0-1.22,1.12A15.36,15.36,0,0,0,26.43,176a19.82,19.82,0,0,0-1.17,2.59,9.75,9.75,0,0,0-.61,2.59,12.45,12.45,0,0,0,.91,5.89,21,21,0,0,0,3.5,5.89,22.24,22.24,0,0,0,5.38,4.67A13.77,13.77,0,0,0,41,199.74a14.72,14.72,0,0,0,11.47-4.21q4.87-4.62,6.29-13.75A4.24,4.24,0,0,0,57.43,178a17.51,17.51,0,0,0-4.21-3,55.89,55.89,0,0,0-5.68-2.59q-3.1-1.22-5.68-2.54A16.45,16.45,0,0,1,37.64,167a4.12,4.12,0,0,1-1.22-3.86,11.72,11.72,0,0,1,3.3-6.75A21.22,21.22,0,0,1,46,152a31.65,31.65,0,0,1,7.36-2.33,37.36,37.36,0,0,1,6.75-.71q1.83,0,2.18.61T61.54,152A47.13,47.13,0,0,1,57.94,157.06Z" style="fill:#ed1c24"/><path d="M79.25,147.37a11.13,11.13,0,0,0,1.42,1.22,2.31,2.31,0,0,0,1.32.51,23.3,23.3,0,0,1,1.22-3.81A38.09,38.09,0,0,1,85,141.53a31.81,31.81,0,0,1,1.93-3.15,10.35,10.35,0,0,1,1.57-1.88,6.46,6.46,0,0,0-1-1,13,13,0,0,0-1.47-1.07,11.49,11.49,0,0,0-1.67-.86,4.4,4.4,0,0,0-1.67-.35,2.33,2.33,0,0,0-1.47.91,10.91,10.91,0,0,0-1.67,2.49,18.25,18.25,0,0,0-1.37,3.65,16.57,16.57,0,0,0-.56,4.31,2.63,2.63,0,0,0,.46,1.27A7.63,7.63,0,0,0,79.25,147.37Z" style="fill:#ed1c24"/><path d="M152.93,174a23.34,23.34,0,0,1-2.08,3.2q-1.47,2-3.4,4.16t-4.11,4.31q-2.18,2.13-4.16,3.76a22.17,22.17,0,0,1-3.5,2.44q-1.52.81-2.23.3a2.24,2.24,0,0,1-.71-1.78,14.1,14.1,0,0,1,.2-3.25q.3-1.88.91-4.21t1.42-4.77A4.58,4.58,0,0,0,140,179.9a10,10,0,0,0,4.82-2.94,19.06,19.06,0,0,0,3.6-5.48,12.17,12.17,0,0,0,1.22-5.84,5.13,5.13,0,0,0-1.42-2.84,21.1,21.1,0,0,0-2.94-2.79,23.92,23.92,0,0,0-3.1-2.08,5.91,5.91,0,0,0-1.88-.81q-2.34,0-4.92,3.25a36.84,36.84,0,0,0-4.72,8.07,65.9,65.9,0,0,0-3.55,10.4l-.07.31q-.87,1.06-1.85,2.18-1.93,2.18-4.11,4.31T117,189.39a22.17,22.17,0,0,1-3.5,2.44q-1.52.81-2.23.3-.91-.61-.71-3a37.42,37.42,0,0,1,1-5.73,59.45,59.45,0,0,1,2.18-6.9q1.37-3.6,2.79-6.65a31.48,31.48,0,0,1,2.84-5q1.42-2,2.33-2a6.78,6.78,0,0,1,.05,2.79,27.88,27.88,0,0,1-.86,3.86,40.45,40.45,0,0,1-1.52,4.26,26.52,26.52,0,0,1-1.93,3.81q.81.61,2.59-.1a11.12,11.12,0,0,0,3.55-2.44,15.26,15.26,0,0,0,3-4.16,9.09,9.09,0,0,0,.91-5.18A5.13,5.13,0,0,0,126,162.8,21.1,21.1,0,0,0,123.1,160a23.92,23.92,0,0,0-3.1-2.08,5.91,5.91,0,0,0-1.88-.81q-2.34,0-4.92,3.25a36.84,36.84,0,0,0-4.72,8.07A65.8,65.8,0,0,0,105,178.68c-.42.7-.85,1.41-1.31,2.13q-1.57,2.49-3.35,4.92T97,189.89a55.81,55.81,0,0,1,1.83-7.66q1.22-3.91,2.59-7.46t2.64-6.34q1.27-2.79,2.08-4.21a5.14,5.14,0,0,0-1.32-1.73,14.41,14.41,0,0,0-2-1.47,16.83,16.83,0,0,0-2-1.07,3.86,3.86,0,0,0-1.32-.41q-.71,0-2.54,2.08A57.91,57.91,0,0,0,93,167q-2.23,3.25-4.57,7.36t-4.16,8.17q1-4.06,2.23-7.71t2.33-6.55q1.12-2.89,2.08-4.92a25.42,25.42,0,0,1,1.57-2.94,5.29,5.29,0,0,0-1.07-1,9.86,9.86,0,0,0-1.78-1,20.18,20.18,0,0,0-2.13-.81,6.78,6.78,0,0,0-2-.36q-.51,0-1.42,1.83a47.77,47.77,0,0,0-2,4.72q-1.07,2.89-2.23,6.65c-.67,2.17-1.29,4.35-1.86,6.55q-1,1.76-2.2,3.7-1.57,2.54-3.4,5.13T68.9,190.3A101.6,101.6,0,0,1,71.39,180q1.47-4.92,3-8.93t2.84-6.75a41.62,41.62,0,0,1,2-3.86,6.35,6.35,0,0,0-1.07-1,8.26,8.26,0,0,0-1.78-1.07,20.16,20.16,0,0,0-2.13-.81,6.78,6.78,0,0,0-2-.36q-.51,0-1.42,1.83t-2.08,4.72q-1.17,2.89-2.39,6.65T64.13,178q-1,3.81-1.67,7.36a43.46,43.46,0,0,0-.76,6.19,4.5,4.5,0,0,0,.66,2A13.08,13.08,0,0,0,64,195.88a13.43,13.43,0,0,0,2,1.93,3.26,3.26,0,0,0,1.88.81q.91,0,2.49-1.88A35.3,35.3,0,0,0,73.62,192c.7-1.18,1.39-2.44,2.07-3.76a30.6,30.6,0,0,0-.2,3.25,4.5,4.5,0,0,0,.66,2,13.08,13.08,0,0,0,1.62,2.33,13.43,13.43,0,0,0,2,1.93,3.26,3.26,0,0,0,1.88.81,36.29,36.29,0,0,1,1.83-5.13q1.42-3.4,3.35-7.36t4.06-7.82q2.13-3.86,4-6.5Q94,174.37,93,177t-1.67,5.18q-.71,2.54-1.17,4.77a19.65,19.65,0,0,0-.46,3.86,2.92,2.92,0,0,0,.86,1.73,12.7,12.7,0,0,0,2.08,1.93A16.55,16.55,0,0,0,95.19,196a5.2,5.2,0,0,0,2.23.66q.91,0,2.33-1.78a32.22,32.22,0,0,0,2.89-4.42c.29-.52.58-1.06.86-1.62,0,0,0,.06,0,.09a6.67,6.67,0,0,0,.86,3,12.05,12.05,0,0,0,2.39,3.15,14.51,14.51,0,0,0,3.5,2.49,8.89,8.89,0,0,0,4.11,1,5.65,5.65,0,0,0,3.25-1.57,30.47,30.47,0,0,0,4-4.06,64.81,64.81,0,0,0,4.06-5.43l.09-.15c0,.53,0,1.05,0,1.57a6.67,6.67,0,0,0,.86,3,12.05,12.05,0,0,0,2.39,3.15,14.51,14.51,0,0,0,3.5,2.49,8.89,8.89,0,0,0,4.11,1,5.65,5.65,0,0,0,3.25-1.57,30.47,30.47,0,0,0,4-4.06,64.81,64.81,0,0,0,4.06-5.43,51.58,51.58,0,0,0,3.35-5.68,25.21,25.21,0,0,0,1.93-4.92Q153.74,174.77,152.93,174Zm-14.87-2.84a41.64,41.64,0,0,1,2.13-4.26,19.88,19.88,0,0,1,2-2.94q1-1.12,1.67-1.12a10.32,10.32,0,0,1-.15,3.3,16,16,0,0,1-1.32,4,14.45,14.45,0,0,1-2.54,3.7,8,8,0,0,1-3.81,2.28Q137,173.56,138.07,171.12Z" style="fill:#ed1c24"/><path d="M204.8,153.86a56.19,56.19,0,0,1,3.1-5.68q1.37-2.13,2.18-2.13a4.46,4.46,0,0,0-1.12-1.52,14,14,0,0,0-2.13-1.73,20.5,20.5,0,0,0-2.49-1.42,5,5,0,0,0-2-.61q-.71,0-2.33,3.15t-3.7,8q-2.08,4.87-4.41,10.91t-4.36,11.82q-1.73.2-6.09.66t-9.54,1q2-5.38,4.21-10.81t4.21-9.74a78.74,78.74,0,0,1,3.65-7q1.62-2.69,2.54-2.69a4.47,4.47,0,0,0-1.12-1.52,14,14,0,0,0-2.13-1.73,20.45,20.45,0,0,0-2.49-1.42,5,5,0,0,0-2-.61q-.71,0-2.49,3.45t-4,8.78q-2.23,5.33-4.67,11.77t-4.57,12.33q-2.64.2-5,.36t-4.21.15q-1.83,0-2.94-.1c-.75-.07-1.15-.2-1.22-.41a7.09,7.09,0,0,0-.05,2.28,19.58,19.58,0,0,0,.46,2.59,13.05,13.05,0,0,0,.71,2.13c.27.61.51.91.71.91a33.83,33.83,0,0,0,3.4-.3q2.49-.3,5.94-.81-1.32,3.86-2,6.6a18.1,18.1,0,0,0-.71,3.86,2.61,2.61,0,0,0,.86,1.73,14,14,0,0,0,2,1.73,11.45,11.45,0,0,0,2.33,1.32,5.42,5.42,0,0,0,1.93.51q-.3-1.12,1-5.89t3.6-11.27l8.42-1.22q4.16-.61,7.31-1-1.73,5.18-2.79,9a24,24,0,0,0-1.07,5.13,2.68,2.68,0,0,0,.81,1.73,11.08,11.08,0,0,0,2,1.73,13.55,13.55,0,0,0,2.33,1.32,5.16,5.16,0,0,0,2,.51,9.39,9.39,0,0,1,.41-3.4q.61-2.69,1.83-6.6t2.84-8.68q1.62-4.77,3.5-9.59t3.81-9.39Q203.07,157.42,204.8,153.86Z" style="fill:#ed1c24"/><path d="M298.47,174a23.33,23.33,0,0,1-2.08,3.2q-1.47,2-3.4,4.16t-4.11,4.31q-2.18,2.13-4.16,3.76a22.21,22.21,0,0,1-3.5,2.44q-1.52.81-2.23.3a2.24,2.24,0,0,1-.71-1.78,14.12,14.12,0,0,1,.2-3.25q.3-1.88.91-4.21t1.42-4.77a4.58,4.58,0,0,0,4.77,1.78,10,10,0,0,0,4.82-2.94,19.06,19.06,0,0,0,3.6-5.48,12.17,12.17,0,0,0,1.22-5.84,5.13,5.13,0,0,0-1.42-2.84,21.08,21.08,0,0,0-2.94-2.79,23.92,23.92,0,0,0-3.1-2.08,5.92,5.92,0,0,0-1.88-.81q-2.34,0-4.92,3.25a36.84,36.84,0,0,0-4.72,8.07,66,66,0,0,0-3.55,10.4l-.07.3q-.87,1.06-1.85,2.18-1.93,2.18-4.11,4.31t-4.16,3.76a22.21,22.21,0,0,1-3.5,2.44q-1.52.81-2.23.3-.91-.61-.71-3a37.33,37.33,0,0,1,1-5.73,59.45,59.45,0,0,1,2.18-6.9q1.37-3.6,2.79-6.65a31.51,31.51,0,0,1,2.84-5q1.42-2,2.33-2a6.78,6.78,0,0,1,.05,2.79,27.82,27.82,0,0,1-.86,3.86,40.62,40.62,0,0,1-1.52,4.26,26.48,26.48,0,0,1-1.93,3.81q.81.61,2.59-.1a11.12,11.12,0,0,0,3.55-2.44,15.25,15.25,0,0,0,3-4.16,9.09,9.09,0,0,0,.91-5.18,5.13,5.13,0,0,0-1.42-2.84,21.08,21.08,0,0,0-2.94-2.79,23.92,23.92,0,0,0-3.1-2.08,5.92,5.92,0,0,0-1.88-.81q-2.34,0-4.92,3.25a36.84,36.84,0,0,0-4.72,8.07,65.87,65.87,0,0,0-3.51,10.25c-.42.7-.85,1.41-1.31,2.13q-1.57,2.49-3.35,4.92t-3.3,4.16a55.76,55.76,0,0,1,1.83-7.66q1.22-3.91,2.59-7.46t2.64-6.34q1.27-2.79,2.08-4.21a5.13,5.13,0,0,0-1.32-1.73,14.39,14.39,0,0,0-2-1.47,16.79,16.79,0,0,0-2-1.07,3.86,3.86,0,0,0-1.32-.41q-.71,0-2.54,2.08a58.18,58.18,0,0,0-4.06,5.33q-2.23,3.25-4.57,7.36t-4.16,8.17q1-4.06,2.23-7.71t2.33-6.55q1.12-2.89,2.08-4.92a25.43,25.43,0,0,1,1.57-2.94,5.26,5.26,0,0,0-1.07-1,9.86,9.86,0,0,0-1.78-1,20.22,20.22,0,0,0-2.13-.81,6.78,6.78,0,0,0-2-.36q-.51,0-1.42,1.83a47.85,47.85,0,0,0-2,4.72q-1.06,2.89-2.23,6.65T223.22,178l0,.18q-1.19,1.53-2.65,3.17-1.93,2.18-4.11,4.31t-4.16,3.76a22.21,22.21,0,0,1-3.5,2.44q-1.52.81-2.23.3a2.24,2.24,0,0,1-.71-1.78,14.12,14.12,0,0,1,.2-3.25q.3-1.88.91-4.21t1.42-4.77a4.58,4.58,0,0,0,4.77,1.78,10,10,0,0,0,4.82-2.94,19.06,19.06,0,0,0,3.6-5.48,12.17,12.17,0,0,0,1.22-5.84,5.13,5.13,0,0,0-1.42-2.84A21.08,21.08,0,0,0,218.4,160a23.92,23.92,0,0,0-3.1-2.08,5.92,5.92,0,0,0-1.88-.81q-2.34,0-4.92,3.25a36.84,36.84,0,0,0-4.72,8.07,66,66,0,0,0-3.55,10.4A41.45,41.45,0,0,0,198.81,189a6.67,6.67,0,0,0,.86,3,12.06,12.06,0,0,0,2.38,3.15,14.52,14.52,0,0,0,3.5,2.49,8.89,8.89,0,0,0,4.11,1,5.65,5.65,0,0,0,3.25-1.57,30.44,30.44,0,0,0,4-4.06,64.73,64.73,0,0,0,4.06-5.43l.41-.63a33.54,33.54,0,0,0-.36,4.59,4.5,4.5,0,0,0,.66,2,13.07,13.07,0,0,0,1.62,2.33,13.4,13.4,0,0,0,2,1.93,3.26,3.26,0,0,0,1.88.81,36.29,36.29,0,0,1,1.83-5.13q1.42-3.4,3.35-7.36t4.06-7.82q2.13-3.86,4-6.5-.91,2.54-1.88,5.18t-1.67,5.18q-.71,2.54-1.17,4.77a19.67,19.67,0,0,0-.46,3.86,2.92,2.92,0,0,0,.86,1.73,12.72,12.72,0,0,0,2.08,1.93,16.52,16.52,0,0,0,2.54,1.57,5.21,5.21,0,0,0,2.23.66q.91,0,2.33-1.78a32.25,32.25,0,0,0,2.89-4.42c.29-.52.58-1.06.86-1.62,0,0,0,.06,0,.09a6.67,6.67,0,0,0,.86,3,12.06,12.06,0,0,0,2.38,3.15,14.52,14.52,0,0,0,3.5,2.49,8.89,8.89,0,0,0,4.11,1,5.65,5.65,0,0,0,3.25-1.57,30.44,30.44,0,0,0,4-4.06,64.73,64.73,0,0,0,4.06-5.43l.1-.15c0,.53,0,1.06,0,1.57a6.67,6.67,0,0,0,.86,3,12.06,12.06,0,0,0,2.38,3.15,14.52,14.52,0,0,0,3.5,2.49,8.89,8.89,0,0,0,4.11,1,5.65,5.65,0,0,0,3.25-1.57,30.44,30.44,0,0,0,4-4.06,64.73,64.73,0,0,0,4.06-5.43,51.53,51.53,0,0,0,3.35-5.68,25.21,25.21,0,0,0,1.93-4.92Q299.28,174.77,298.47,174Zm-14.87-2.84a41.56,41.56,0,0,1,2.13-4.26,19.77,19.77,0,0,1,2-2.94q1-1.12,1.67-1.12a10.34,10.34,0,0,1-.15,3.3,15.93,15.93,0,0,1-1.32,4,14.43,14.43,0,0,1-2.54,3.7,8,8,0,0,1-3.81,2.28Q282.54,173.56,283.6,171.12Zm-72.47,0a41.56,41.56,0,0,1,2.13-4.26,19.77,19.77,0,0,1,2-2.94q1-1.12,1.67-1.12a10.34,10.34,0,0,1-.15,3.3,15.93,15.93,0,0,1-1.32,4,14.43,14.43,0,0,1-2.54,3.7,8,8,0,0,1-3.81,2.28Q210.07,173.56,211.14,171.12Z" style="fill:#ed1c24"/></svg>