<svg xmlns="http://www.w3.org/2000/svg" viewBox="0 0 767.47 767.47"><title>svg_Asset 3</title><g id="Layer_2" data-name="Layer 2"><g id="Layer_1-2" data-name="Layer 1"><circle cx="383.73" cy="383.73" r="383.73" style="fill:#b42627"/><path d="M384.41,276A107.36,107.36,0,1,0,491.77,383.36,107.48,107.48,0,0,0,384.41,276Zm3.68,127.33v50.56a6.74,6.74,0,0,1-6.54,6.82c-3.89,0-7.46-2.4-7.46-6.29V403.17L354,428.54A7,7,0,1,1,343,420l22.28-28.18a20.9,20.9,0,0,1,.8-19.53L317.87,328c-2.83-2.63-1.72-6.62.9-9.44s6.12-3.71,8.95-1.09l49.1,45.63a20.94,20.94,0,1,1,11.27,40.19Z" style="fill:#bec1bc"/><path d="M613.93,164.86a2.42,2.42,0,0,0-.41-2.64l-.88-1h0l-.06-.06h0l-.47-.49a2.42,2.42,0,0,0-2.71-.52L391.19,257.85a2.42,2.42,0,0,1-2.4-.25l-72.42-52.37a2.42,2.42,0,0,0-2.47-.22l-64.17,31.14a2.42,2.42,0,0,0-1.35,2.36l10.52,135.67a2.42,2.42,0,0,1-.21,1.19L154.9,601.85a2.42,2.42,0,0,0,.41,2.64l.88,1h0l.06.06h0l.48.49a2.42,2.42,0,0,0,2.71.52l218.18-97.66a2.42,2.42,0,0,1,2.4.25l72.42,52.37a2.42,2.42,0,0,0,2.47.22l64.17-31.14a2.42,2.42,0,0,0,1.35-2.36L509.93,392.53a2.42,2.42,0,0,1,.21-1.19ZM384.41,504A121.79,121.79,0,1,1,506.21,382.24,121.93,121.93,0,0,1,384.41,504Z" style="fill:#bec1bc"/></g></g></svg>